<svg width="5136" height="2019" viewBox="0 0 5136 2019" fill="none" xmlns="http://www.w3.org/2000/svg">
<path d="M226.671 1792.41V1683.98H271.439C278.462 1683.98 284.555 1685.32 289.718 1688C294.882 1690.59 298.858 1694.3 301.646 1699.16C304.537 1703.91 305.983 1709.54 305.983 1716.04C305.983 1722.44 304.537 1728.07 301.646 1732.93C298.858 1737.78 294.882 1741.55 289.718 1744.23C284.555 1746.82 278.462 1748.11 271.439 1748.11H238.599V1792.41H226.671ZM238.599 1737.88H270.045C277.584 1737.88 283.47 1735.92 287.704 1732C291.938 1728.07 294.056 1722.75 294.056 1716.04C294.056 1709.33 291.938 1704.06 287.704 1700.24C283.47 1696.42 277.584 1694.51 270.045 1694.51H238.599V1737.88ZM357.458 1792.41V1683.98H369.386V1781.88H430.574V1792.41H357.458ZM471.768 1792.41L514.677 1683.98H528.928L571.217 1792.41H558.36L545.503 1758.33H497.172L484.315 1792.41H471.768ZM500.89 1748.88H541.94L521.338 1694.82L500.89 1748.88ZM615.855 1792.41V1683.98H628.247L691.759 1773.82L691.449 1683.98H702.757V1792.41H691.913L626.853 1700.55L627.163 1792.41H615.855ZM765.379 1793.65C763.107 1793.65 761.145 1792.82 759.492 1791.17C757.943 1789.52 757.169 1787.56 757.169 1785.28C757.169 1782.91 757.943 1780.95 759.492 1779.4C761.145 1777.75 763.107 1776.92 765.379 1776.92C767.651 1776.92 769.561 1777.75 771.11 1779.4C772.763 1780.95 773.589 1782.91 773.589 1785.28C773.589 1787.56 772.763 1789.52 771.11 1791.17C769.561 1792.82 767.651 1793.65 765.379 1793.65ZM827.961 1792.41V1683.98H872.729C879.751 1683.98 885.844 1685.32 891.008 1688C896.171 1690.59 900.147 1694.3 902.935 1699.16C905.827 1703.91 907.273 1709.54 907.273 1716.04C907.273 1722.44 905.827 1728.07 902.935 1732.93C900.147 1737.78 896.171 1741.55 891.008 1744.23C885.844 1746.82 879.751 1748.11 872.729 1748.11H839.889V1792.41H827.961ZM839.889 1737.88H871.335C878.873 1737.88 884.76 1735.92 888.994 1732C893.228 1728.07 895.345 1722.75 895.345 1716.04C895.345 1709.33 893.228 1704.06 888.994 1700.24C884.76 1696.42 878.873 1694.51 871.335 1694.51H839.889V1737.88ZM933.194 1792.41L976.103 1683.98H990.354L1032.64 1792.41H1019.79L1006.93 1758.33H958.599L945.742 1792.41H933.194ZM962.316 1748.88H1003.37L982.764 1694.82L962.316 1748.88ZM1122.63 1794.11C1114.88 1794.11 1107.65 1792.72 1100.94 1789.93C1094.33 1787.04 1088.5 1783.06 1083.43 1778C1078.37 1772.84 1074.45 1766.9 1071.66 1760.19C1068.87 1753.37 1067.48 1746.04 1067.48 1738.19C1067.48 1730.34 1068.87 1723.06 1071.66 1716.35C1074.45 1709.54 1078.37 1703.6 1083.43 1698.54C1088.5 1693.37 1094.33 1689.4 1100.94 1686.61C1107.65 1683.72 1114.88 1682.27 1122.63 1682.27C1128 1682.27 1133.11 1682.99 1137.96 1684.44C1142.92 1685.78 1147.57 1687.8 1151.9 1690.48C1156.24 1693.06 1160.11 1696.27 1163.52 1700.09L1155.62 1708.3C1151.59 1703.44 1146.64 1699.72 1140.75 1697.14C1134.97 1694.46 1128.93 1693.12 1122.63 1693.12C1116.53 1693.12 1110.85 1694.25 1105.59 1696.52C1100.32 1698.8 1095.72 1702 1091.8 1706.13C1087.98 1710.26 1084.98 1715.06 1082.82 1720.53C1080.65 1725.9 1079.56 1731.79 1079.56 1738.19C1079.56 1744.49 1080.65 1750.38 1082.82 1755.85C1084.98 1761.33 1087.98 1766.13 1091.8 1770.26C1095.72 1774.39 1100.32 1777.59 1105.59 1779.86C1110.85 1782.13 1116.53 1783.27 1122.63 1783.27C1128.93 1783.27 1134.97 1781.93 1140.75 1779.24C1146.64 1776.56 1151.59 1772.84 1155.62 1768.09L1163.52 1776.3C1160.11 1780.12 1156.24 1783.37 1151.9 1786.06C1147.57 1788.64 1142.92 1790.65 1137.96 1792.1C1133.11 1793.44 1128 1794.11 1122.63 1794.11ZM1214.42 1792.41V1683.98H1226.35V1735.4L1279.02 1683.98H1294.2L1238.9 1737.26L1295.44 1792.41H1279.17L1226.35 1740.52V1792.41H1214.42ZM1343.98 1793.65C1341.71 1793.65 1339.74 1792.82 1338.09 1791.17C1336.54 1789.52 1335.77 1787.56 1335.77 1785.28C1335.77 1782.91 1336.54 1780.95 1338.09 1779.4C1339.74 1777.75 1341.71 1776.92 1343.98 1776.92C1346.25 1776.92 1348.16 1777.75 1349.71 1779.4C1351.36 1780.95 1352.19 1782.91 1352.19 1785.28C1352.19 1787.56 1351.36 1789.52 1349.71 1791.17C1348.16 1792.82 1346.25 1793.65 1343.98 1793.65ZM1450.08 1794.11C1442.34 1794.11 1435.16 1792.67 1428.55 1789.78C1421.94 1786.89 1416.11 1782.91 1411.05 1777.85C1406.09 1772.69 1402.22 1766.75 1399.43 1760.03C1396.64 1753.22 1395.24 1745.94 1395.24 1738.19C1395.24 1730.45 1396.64 1723.22 1399.43 1716.51C1402.22 1709.69 1406.09 1703.75 1411.05 1698.69C1416.11 1693.53 1421.94 1689.5 1428.55 1686.61C1435.16 1683.72 1442.34 1682.27 1450.08 1682.27C1458.34 1682.27 1466.14 1683.77 1473.47 1686.76C1480.91 1689.76 1487.21 1694.2 1492.37 1700.09L1484.32 1708.14C1480.29 1703.29 1475.23 1699.57 1469.14 1696.99C1463.04 1694.41 1456.69 1693.12 1450.08 1693.12C1443.99 1693.12 1438.36 1694.3 1433.2 1696.68C1428.03 1698.95 1423.49 1702.15 1419.57 1706.28C1415.74 1710.31 1412.75 1715.06 1410.58 1720.53C1408.41 1726.01 1407.33 1731.89 1407.33 1738.19C1407.33 1744.49 1408.41 1750.38 1410.58 1755.85C1412.75 1761.33 1415.74 1766.13 1419.57 1770.26C1423.49 1774.29 1428.03 1777.49 1433.2 1779.86C1438.36 1782.13 1443.99 1783.27 1450.08 1783.27C1457.31 1783.27 1463.77 1781.67 1469.44 1778.47C1475.23 1775.27 1479.88 1770.88 1483.39 1765.3C1487 1759.62 1489.12 1753.27 1489.74 1746.25H1453.18V1735.71H1501.82V1740.52C1501.82 1748.06 1500.53 1755.08 1497.95 1761.58C1495.37 1767.99 1491.7 1773.67 1486.95 1778.62C1482.3 1783.48 1476.83 1787.3 1470.53 1790.09C1464.23 1792.77 1457.41 1794.11 1450.08 1794.11ZM1602.48 1794.11C1594.94 1794.11 1587.92 1792.72 1581.42 1789.93C1574.91 1787.04 1569.18 1783.06 1564.22 1778C1559.37 1772.84 1555.55 1766.9 1552.76 1760.19C1549.97 1753.37 1548.58 1746.04 1548.58 1738.19C1548.58 1730.34 1549.97 1723.06 1552.76 1716.35C1555.55 1709.54 1559.37 1703.6 1564.22 1698.54C1569.18 1693.37 1574.91 1689.4 1581.42 1686.61C1587.92 1683.72 1594.94 1682.27 1602.48 1682.27C1610.02 1682.27 1617.04 1683.72 1623.55 1686.61C1630.06 1689.4 1635.74 1693.37 1640.59 1698.54C1645.55 1703.6 1649.42 1709.54 1652.21 1716.35C1655 1723.06 1656.39 1730.34 1656.39 1738.19C1656.39 1746.04 1655 1753.37 1652.21 1760.19C1649.42 1766.9 1645.55 1772.84 1640.59 1778C1635.74 1783.06 1630.06 1787.04 1623.55 1789.93C1617.04 1792.72 1610.02 1794.11 1602.48 1794.11ZM1602.48 1783.27C1608.37 1783.27 1613.84 1782.13 1618.9 1779.86C1623.96 1777.59 1628.4 1774.39 1632.22 1770.26C1636.05 1766.13 1638.99 1761.33 1641.05 1755.85C1643.22 1750.38 1644.31 1744.49 1644.31 1738.19C1644.31 1731.79 1643.22 1725.9 1641.05 1720.53C1638.99 1715.06 1636.05 1710.26 1632.22 1706.13C1628.4 1702 1623.96 1698.8 1618.9 1696.52C1613.84 1694.25 1608.37 1693.12 1602.48 1693.12C1596.6 1693.12 1591.12 1694.25 1586.06 1696.52C1581 1698.8 1576.56 1702 1572.74 1706.13C1568.92 1710.26 1565.92 1715.06 1563.76 1720.53C1561.69 1725.9 1560.66 1731.74 1560.66 1738.04C1560.66 1744.44 1561.69 1750.38 1563.76 1755.85C1565.92 1761.33 1568.92 1766.13 1572.74 1770.26C1576.56 1774.39 1581 1777.59 1586.06 1779.86C1591.12 1782.13 1596.6 1783.27 1602.48 1783.27Z" fill="#321E5D"/>
<path d="M241.695 1099.95C247.17 1099.95 250.689 1094.87 252.253 1084.7C254.6 1073.75 251.08 1055.37 241.695 1029.56C237.784 1019.4 230.354 1001.41 219.405 975.599C208.456 949.79 195.551 920.07 180.691 886.44C165.831 852.028 150.58 817.615 134.938 783.203C119.296 748.009 104.828 716.334 91.5319 688.178C78.2363 659.24 67.6779 637.733 59.8569 623.655C46.5612 598.628 34.4387 580.639 23.4893 569.69C12.5399 557.959 4.71896 551.702 0.0263672 550.92H191.25C184.211 550.92 179.518 556.394 177.172 567.344C174.825 578.293 179.518 597.064 191.25 623.655C197.506 636.951 206.109 657.285 217.059 684.659C228.008 711.25 240.131 742.143 253.426 777.337C267.504 811.75 281.582 846.944 295.66 882.921C310.52 918.897 323.815 952.527 335.547 983.811H336.72C349.233 951.745 362.92 917.724 377.78 881.748C392.64 844.989 407.109 809.012 421.187 773.818C435.264 738.623 447.778 707.731 458.727 681.139C470.459 653.766 479.062 633.822 484.537 621.309C495.486 596.281 499.788 578.293 497.441 567.344C495.095 556.394 490.793 550.92 484.537 550.92H668.721C664.028 550.92 656.598 556.394 646.431 567.344C637.046 577.511 626.096 595.108 613.583 620.136C606.544 633.431 596.377 653.766 583.081 681.139C569.785 708.513 554.925 739.406 538.501 773.818C522.859 807.448 507.217 841.078 491.575 874.709C476.716 908.339 463.42 939.232 451.688 967.387C440.739 994.761 433.309 1015.49 429.399 1029.56C422.36 1055.37 419.622 1073.75 421.187 1084.7C422.751 1094.87 425.488 1099.95 429.399 1099.95H241.695ZM723.052 1099.95C728.527 1099.95 733.611 1094.48 738.303 1083.53C743.778 1072.58 746.515 1054.59 746.515 1029.56V621.309C746.515 596.281 743.778 578.684 738.303 568.517C733.611 557.568 728.527 551.702 723.052 550.92H866.176V1029.56C866.176 1054.59 868.523 1072.58 873.215 1083.53C878.69 1094.48 884.165 1099.95 889.639 1099.95H723.052ZM794.614 438.298C771.933 438.298 754.336 432.041 741.823 419.527C729.309 406.231 723.052 390.981 723.052 373.774C723.052 355.786 728.918 340.535 740.65 328.022C753.163 315.508 771.151 309.251 794.614 309.251C818.077 309.251 835.675 315.508 847.406 328.022C859.92 340.535 866.176 355.786 866.176 373.774C866.176 390.981 859.92 406.231 847.406 419.527C834.892 432.041 817.295 438.298 794.614 438.298Z" fill="#321E5D"/>
<path d="M1276.24 1386.2C1230.88 1386.2 1189.03 1383.07 1150.71 1376.82C1113.17 1370.56 1080.32 1362.74 1052.17 1353.35C1024.79 1344.75 1003.68 1336.15 988.816 1327.54L1012.28 1221.96V1187.94C1023.23 1204.36 1040.43 1221.57 1063.9 1239.56C1087.36 1257.55 1116.69 1272.8 1151.88 1285.31C1187.08 1297.82 1226.97 1304.08 1271.54 1304.08C1323.95 1304.08 1362.66 1295.48 1387.69 1278.27C1413.5 1261.07 1430.31 1237.21 1438.13 1206.71C1446.74 1176.21 1451.04 1141.4 1451.04 1102.3V1058.89L1453.38 1037.78L1451.04 1035.43C1440.87 1048.73 1426.79 1061.24 1408.8 1072.97C1390.82 1084.7 1369.31 1094.09 1344.28 1101.13C1319.25 1108.17 1291.1 1111.68 1259.81 1111.68C1185.51 1111.68 1127.64 1099.17 1086.19 1074.14C1045.52 1049.12 1016.97 1015.1 1000.55 972.08C984.906 929.065 977.085 880.574 977.085 826.61C977.085 771.863 984.906 722.981 1000.55 679.966C1016.97 636.951 1045.52 602.929 1086.19 577.902C1127.64 552.093 1185.51 539.188 1259.81 539.188C1291.1 539.188 1318.86 542.317 1343.11 548.573C1367.35 554.048 1388.47 561.869 1406.46 572.036C1424.45 581.422 1439.31 592.762 1451.04 606.058L1453.38 604.885L1451.04 582.595V550.92H1594.16C1588.69 551.702 1583.21 557.568 1577.74 568.517C1573.04 579.466 1570.7 597.846 1570.7 623.655V1072.97C1570.7 1186.38 1546.45 1266.93 1497.96 1314.64C1450.25 1362.35 1376.35 1386.2 1276.24 1386.2ZM1268.03 1028.39C1316.52 1028.39 1354.06 1020.96 1380.65 1006.1C1407.24 990.459 1425.62 967.778 1435.79 938.059C1445.95 907.557 1451.04 870.407 1451.04 826.61C1451.04 783.594 1445.56 746.835 1434.61 716.334C1424.45 685.832 1406.07 662.369 1379.47 645.945C1353.67 629.521 1316.52 621.309 1268.03 621.309C1224.23 621.309 1189.82 629.912 1164.79 647.118C1139.76 663.542 1121.77 687.396 1110.82 718.68C1100.66 749.182 1095.57 785.549 1095.57 827.783C1095.57 869.234 1100.66 905.211 1110.82 935.712C1120.99 965.432 1138.59 988.504 1163.62 1004.93C1189.42 1020.57 1224.23 1028.39 1268.03 1028.39ZM1996.94 1111.68C1918.73 1111.68 1857.33 1099.17 1812.75 1074.14C1768.95 1049.12 1738.06 1015.1 1720.07 972.08C1702.87 929.065 1694.26 880.574 1694.26 826.61C1694.26 771.863 1703.26 722.981 1721.25 679.966C1740.02 636.951 1771.3 602.929 1815.1 577.902C1858.89 552.093 1919.51 539.188 1996.94 539.188C2074.36 539.188 2134.98 552.093 2178.77 577.902C2222.57 602.929 2253.46 636.951 2271.45 679.966C2290.22 722.981 2299.61 771.863 2299.61 826.61C2299.61 880.574 2290.61 929.065 2272.63 972.08C2255.42 1015.1 2224.92 1049.12 2181.12 1074.14C2137.32 1099.17 2075.93 1111.68 1996.94 1111.68ZM1996.94 1028.39C2045.43 1028.39 2082.97 1020.57 2109.56 1004.93C2136.15 989.286 2154.53 966.605 2164.7 936.886C2174.86 906.384 2179.95 869.625 2179.95 826.61C2179.95 783.594 2174.47 746.835 2163.52 716.334C2153.36 685.832 2134.98 662.369 2108.38 645.945C2082.58 629.521 2045.43 621.309 1996.94 621.309C1949.23 621.309 1912.08 629.912 1885.49 647.118C1858.89 663.542 1840.12 687.396 1829.18 718.68C1819.01 749.182 1813.92 785.549 1813.92 827.783C1813.92 869.234 1819.01 905.211 1829.18 935.712C1839.34 965.432 1857.72 988.504 1884.31 1004.93C1910.9 1020.57 1948.45 1028.39 1996.94 1028.39Z" fill="#936FE0"/>
<path d="M2546.75 1099.95C2552.22 1099.95 2555.74 1094.87 2557.31 1084.7C2559.65 1073.75 2556.13 1055.37 2546.75 1029.56C2542.84 1019.4 2535.41 1001.41 2524.46 975.599C2513.51 949.79 2500.6 920.07 2485.74 886.44C2470.88 852.028 2455.63 817.615 2439.99 783.203C2424.35 748.009 2409.88 716.334 2396.58 688.178C2383.29 659.24 2372.73 637.733 2364.91 623.655C2351.61 598.628 2339.49 580.639 2328.54 569.69C2317.59 557.959 2309.77 551.702 2305.08 550.92H2496.3C2489.26 550.92 2484.57 556.394 2482.22 567.344C2479.88 578.293 2484.57 597.064 2496.3 623.655C2502.56 636.951 2511.16 657.285 2522.11 684.659C2533.06 711.25 2545.18 742.143 2558.48 777.337C2572.56 811.75 2586.63 846.944 2600.71 882.921C2615.57 918.897 2628.87 952.527 2640.6 983.811H2641.77C2654.29 951.745 2667.97 917.724 2682.83 881.748C2697.69 844.989 2712.16 809.012 2726.24 773.818C2740.32 738.623 2752.83 707.731 2763.78 681.139C2775.51 653.766 2784.11 633.822 2789.59 621.309C2800.54 596.281 2804.84 578.293 2802.49 567.344C2800.15 556.394 2795.85 550.92 2789.59 550.92H2973.77C2969.08 550.92 2961.65 556.394 2951.48 567.344C2942.1 577.511 2931.15 595.108 2918.64 620.136C2911.6 633.431 2901.43 653.766 2888.13 681.139C2874.84 708.513 2859.98 739.406 2843.55 773.818C2827.91 807.448 2812.27 841.078 2796.63 874.709C2781.77 908.339 2768.47 939.232 2756.74 967.387C2745.79 994.761 2738.36 1015.49 2734.45 1029.56C2727.41 1055.37 2724.68 1073.75 2726.24 1084.7C2727.8 1094.87 2730.54 1099.95 2734.45 1099.95H2546.75ZM3028.11 1099.95C3033.58 1099.95 3038.66 1094.48 3043.36 1083.53C3048.83 1072.58 3051.57 1054.59 3051.57 1029.56V621.309C3051.57 596.281 3048.83 578.684 3043.36 568.517C3038.66 557.568 3033.58 551.702 3028.11 550.92H3171.23V1029.56C3171.23 1054.59 3173.58 1072.58 3178.27 1083.53C3183.74 1094.48 3189.22 1099.95 3194.69 1099.95H3028.11ZM3099.67 438.298C3076.99 438.298 3059.39 432.041 3046.88 419.527C3034.36 406.231 3028.11 390.981 3028.11 373.774C3028.11 355.786 3033.97 340.535 3045.7 328.022C3058.22 315.508 3076.2 309.251 3099.67 309.251C3123.13 309.251 3140.73 315.508 3152.46 328.022C3164.97 340.535 3171.23 355.786 3171.23 373.774C3171.23 390.981 3164.97 406.231 3152.46 419.527C3139.95 432.041 3122.35 438.298 3099.67 438.298ZM3519.11 1111.68C3433.86 1111.68 3374.03 1096.43 3339.62 1065.93C3305.21 1034.65 3288 992.806 3288 940.405C3288 903.646 3297 872.362 3314.99 846.553C3333.76 819.962 3361.52 799.627 3398.28 785.549C3435.82 771.472 3483.14 764.433 3540.23 764.433C3580.9 764.433 3616.09 767.561 3645.81 773.818C3676.32 779.293 3700.95 785.94 3719.72 793.761C3739.27 801.582 3752.96 808.23 3760.78 813.705C3760.78 767.561 3754.92 730.411 3743.18 702.256C3732.24 674.1 3714.25 653.766 3689.22 641.252C3664.19 627.956 3630.17 621.309 3587.16 621.309C3541.01 621.309 3499.56 626.783 3462.8 637.733C3426.83 647.9 3397.89 659.24 3375.99 671.754C3354.09 683.485 3340.4 692.089 3334.93 697.563V674.1L3323.2 586.114C3330.24 582.986 3345.49 577.902 3368.95 570.863C3392.41 563.042 3423.31 556.003 3461.63 549.747C3499.95 542.708 3544.92 539.188 3596.54 539.188C3662.24 539.188 3715.81 548.573 3757.26 567.344C3799.5 585.332 3830.39 613.488 3849.94 651.81C3870.28 689.351 3880.44 737.059 3880.44 794.935V1029.56C3880.44 1051.46 3882.79 1067.5 3887.48 1077.66C3892.96 1087.05 3898.43 1094.48 3903.91 1099.95H3760.78V1064.76L3763.13 1042.47L3760.78 1041.3C3748.27 1053.03 3733.41 1063.19 3716.2 1071.8C3699 1080.4 3680.23 1087.83 3659.89 1094.09C3639.56 1099.56 3617.27 1103.86 3593.02 1106.99C3569.56 1110.12 3544.92 1111.68 3519.11 1111.68ZM3557.83 1028.39C3600.06 1028.39 3636.43 1024.09 3666.93 1015.49C3697.43 1006.88 3720.5 995.543 3736.15 981.465C3752.57 966.605 3760.78 949.79 3760.78 931.02C3760.78 907.557 3745.14 887.613 3713.86 871.189C3683.35 854.765 3635.65 846.553 3570.73 846.553C3510.51 846.553 3467.89 854.374 3442.86 870.016C3418.61 885.658 3406.49 909.121 3406.49 940.405C3406.49 970.907 3418.22 993.197 3441.69 1007.27C3465.93 1021.35 3504.64 1028.39 3557.83 1028.39Z" fill="#321E5D"/>
<path d="M1661.24 1794.05L2230.41 1794.05C2230.41 1794.05 2381.63 1791.72 2477.97 1782.48C2552.38 1775.35 2667.69 1757.03 2667.69 1757.03C2667.69 1757.03 2789.61 1739.28 2866.63 1722.33C2933.21 1707.67 3035.57 1678.37 3035.57 1678.37L3195.21 1618.21" stroke="#321E5D" stroke-width="4.62736" stroke-dasharray="32.39 32.39"/>
<path d="M3902.99 1350.97C3900 1345.31 3896.02 1341.66 3891.71 1337.71C3839.33 1289.7 3779.84 1315.73 3779.84 1315.73L3390.45 1449.81C3385.24 1451.67 3377.32 1446.68 3372.7 1444.64L3140.43 1300.16C3135.81 1298.11 3128.54 1299.54 3124.27 1303.33L3095.82 1328.6C3091.55 1332.39 3090.38 1338.89 3093.21 1343.05L3199.72 1503.78C3202.55 1507.94 3205.24 1512.86 3200.03 1514.72L3003.35 1583.24C2998.14 1585.1 2990.25 1584.67 2985.82 1582.29C2985.82 1582.29 2883.87 1527.45 2860.1 1514.23C2855.63 1511.27 2850.88 1512.38 2846.76 1515.1C2837.49 1521.22 2824.22 1532.51 2824.22 1532.51C2819.88 1536.21 2818.81 1542.5 2821.85 1546.49L2886.24 1637.4C2889.28 1641.39 2896.18 1645.21 2901.38 1645.7L3103.89 1647.35C3109.09 1647.84 3117.62 1646.84 3122.86 1645.11C3122.86 1645.11 3781.11 1420.3 3785.57 1416.76C3785.57 1416.76 3871.77 1388.41 3897.4 1364.14C3902.27 1359.52 3905.97 1356.63 3902.99 1350.97Z" fill="#321E5D"/>
</svg>
